<mxfile host="app.diagrams.net" modified="2024-05-18T17:48:53.919Z" agent="Mozilla/5.0 (Windows NT 10.0; Win64; x64) AppleWebKit/537.36 (KHTML, like Gecko) Chrome/125.0.0.0 Safari/537.36" etag="cZzQ7Si3wl530YelAU96" version="24.4.4" type="github">
  <diagram name="Seite-1" id="uiEVvNNgFcN07YFnaSHW">
    <mxGraphModel dx="1436" dy="727" grid="1" gridSize="10" guides="1" tooltips="1" connect="1" arrows="1" fold="1" page="1" pageScale="1" pageWidth="840" pageHeight="1000" math="0" shadow="0">
      <root>
        <mxCell id="0" />
        <mxCell id="1" parent="0" />
        <mxCell id="ThU3r7lbUPTXgGJsLcgU-29" value="" style="fontStyle=0;dashed=1;html=1;whiteSpace=wrap;fontFamily=Helvetica;fontSize=11;fontColor=default;labelBackgroundColor=none;textOpacity=0;fillColor=none;" vertex="1" parent="1">
          <mxGeometry x="230" y="170" width="440" height="370" as="geometry" />
        </mxCell>
        <mxCell id="ThU3r7lbUPTXgGJsLcgU-30" value="" style="fontStyle=0;dashed=1;html=1;whiteSpace=wrap;fontFamily=Helvetica;fontSize=11;fontColor=default;labelBackgroundColor=none;textOpacity=0;fillColor=none;" vertex="1" parent="1">
          <mxGeometry x="350" y="331.75" width="305" height="190" as="geometry" />
        </mxCell>
        <mxCell id="ThU3r7lbUPTXgGJsLcgU-34" style="edgeStyle=orthogonalEdgeStyle;rounded=0;orthogonalLoop=1;jettySize=auto;html=1;entryX=0.5;entryY=0;entryDx=0;entryDy=0;strokeColor=default;align=center;verticalAlign=middle;fontFamily=Helvetica;fontSize=11;fontColor=default;labelBackgroundColor=default;endArrow=open;endFill=0;" edge="1" parent="1" source="I-S3wze22YUGqL7Zf7O3-9" target="ThU3r7lbUPTXgGJsLcgU-6">
          <mxGeometry relative="1" as="geometry" />
        </mxCell>
        <mxCell id="I-S3wze22YUGqL7Zf7O3-9" value="Tag erstellen" style="rounded=1;whiteSpace=wrap;html=1;fontFamily=Helvetica;fontSize=11;fontColor=default;labelBackgroundColor=default;" parent="1" vertex="1">
          <mxGeometry x="257" y="234" width="98" height="40" as="geometry" />
        </mxCell>
        <mxCell id="I-S3wze22YUGqL7Zf7O3-14" value="" style="strokeWidth=1;html=1;shape=mxgraph.flowchart.annotation_2;align=left;labelPosition=right;pointerEvents=1;rotation=90;fontFamily=Helvetica;fontSize=11;fontColor=default;labelBackgroundColor=default;" parent="1" vertex="1">
          <mxGeometry x="338" y="263" width="9" height="11" as="geometry" />
        </mxCell>
        <mxCell id="I-S3wze22YUGqL7Zf7O3-15" value="" style="endArrow=none;html=1;rounded=0;entryX=0.519;entryY=0.49;entryDx=0;entryDy=0;entryPerimeter=0;exitX=1;exitY=0.5;exitDx=0;exitDy=0;exitPerimeter=0;strokeWidth=1;strokeColor=default;align=center;verticalAlign=middle;fontFamily=Helvetica;fontSize=11;fontColor=default;labelBackgroundColor=default;edgeStyle=orthogonalEdgeStyle;" parent="1" source="I-S3wze22YUGqL7Zf7O3-14" target="I-S3wze22YUGqL7Zf7O3-14" edge="1">
          <mxGeometry width="50" height="50" relative="1" as="geometry">
            <mxPoint x="-288" y="381.5" as="sourcePoint" />
            <mxPoint x="-225" y="411.5" as="targetPoint" />
          </mxGeometry>
        </mxCell>
        <mxCell id="I-S3wze22YUGqL7Zf7O3-16" value="Tags bearbeiten" style="shape=umlFrame;whiteSpace=wrap;html=1;pointerEvents=0;width=100;height=20;align=left;" parent="1" vertex="1">
          <mxGeometry x="200" y="90" width="520" height="550" as="geometry" />
        </mxCell>
        <mxCell id="I-S3wze22YUGqL7Zf7O3-18" style="edgeStyle=orthogonalEdgeStyle;rounded=0;orthogonalLoop=1;jettySize=auto;html=1;endArrow=open;endFill=0;entryX=0.509;entryY=0.417;entryDx=0;entryDy=0;entryPerimeter=0;" parent="1" source="I-S3wze22YUGqL7Zf7O3-17" target="I-S3wze22YUGqL7Zf7O3-22" edge="1">
          <mxGeometry relative="1" as="geometry">
            <mxPoint x="370" y="210" as="targetPoint" />
          </mxGeometry>
        </mxCell>
        <mxCell id="I-S3wze22YUGqL7Zf7O3-17" value="" style="ellipse;html=1;shape=startState;fillColor=#000000;strokeColor=#000000;" parent="1" vertex="1">
          <mxGeometry x="380" y="114" width="30" height="30" as="geometry" />
        </mxCell>
        <mxCell id="I-S3wze22YUGqL7Zf7O3-19" value="" style="ellipse;html=1;shape=endState;fillColor=#000000;strokeColor=#000000;fontFamily=Helvetica;fontSize=11;fontColor=default;labelBackgroundColor=default;" parent="1" vertex="1">
          <mxGeometry x="531" y="590" width="30" height="30" as="geometry" />
        </mxCell>
        <mxCell id="I-S3wze22YUGqL7Zf7O3-24" style="edgeStyle=orthogonalEdgeStyle;rounded=0;orthogonalLoop=1;jettySize=auto;html=1;exitX=0.75;exitY=0.5;exitDx=0;exitDy=0;exitPerimeter=0;entryX=0.5;entryY=0;entryDx=0;entryDy=0;strokeColor=default;align=center;verticalAlign=middle;fontFamily=Helvetica;fontSize=11;fontColor=default;labelBackgroundColor=default;endArrow=open;endFill=0;" parent="1" source="I-S3wze22YUGqL7Zf7O3-22" target="I-S3wze22YUGqL7Zf7O3-9" edge="1">
          <mxGeometry relative="1" as="geometry" />
        </mxCell>
        <mxCell id="ThU3r7lbUPTXgGJsLcgU-3" style="edgeStyle=orthogonalEdgeStyle;rounded=0;orthogonalLoop=1;jettySize=auto;html=1;exitX=0.25;exitY=0.5;exitDx=0;exitDy=0;exitPerimeter=0;entryX=0.5;entryY=0;entryDx=0;entryDy=0;strokeColor=default;align=center;verticalAlign=middle;fontFamily=Helvetica;fontSize=11;fontColor=default;labelBackgroundColor=default;endArrow=open;endFill=0;" edge="1" parent="1" source="I-S3wze22YUGqL7Zf7O3-22" target="ThU3r7lbUPTXgGJsLcgU-1">
          <mxGeometry relative="1" as="geometry" />
        </mxCell>
        <mxCell id="I-S3wze22YUGqL7Zf7O3-22" value="" style="shape=line;html=1;strokeWidth=6;strokeColor=#000000;fillColor=#000000;fontFamily=Helvetica;fontSize=11;fontColor=default;labelBackgroundColor=default;rotation=-180;" parent="1" vertex="1">
          <mxGeometry x="241" y="200" width="313" height="10" as="geometry" />
        </mxCell>
        <mxCell id="ThU3r7lbUPTXgGJsLcgU-1" value="Tag auswählen" style="rounded=1;whiteSpace=wrap;html=1;fontFamily=Helvetica;fontSize=11;fontColor=default;labelBackgroundColor=default;" vertex="1" parent="1">
          <mxGeometry x="444.75" y="234" width="100" height="40" as="geometry" />
        </mxCell>
        <mxCell id="ThU3r7lbUPTXgGJsLcgU-6" value="" style="shape=sumEllipse;perimeter=ellipsePerimeter;html=1;backgroundOutline=1;fontFamily=Helvetica;fontSize=11;fontColor=default;labelBackgroundColor=default;" vertex="1" parent="1">
          <mxGeometry x="291" y="300" width="30" height="30" as="geometry" />
        </mxCell>
        <mxCell id="ThU3r7lbUPTXgGJsLcgU-9" style="edgeStyle=orthogonalEdgeStyle;rounded=0;orthogonalLoop=1;jettySize=auto;html=1;strokeColor=default;align=center;verticalAlign=middle;fontFamily=Helvetica;fontSize=11;fontColor=default;labelBackgroundColor=default;endArrow=open;endFill=0;entryX=0.498;entryY=0.402;entryDx=0;entryDy=0;entryPerimeter=0;" edge="1" parent="1" source="ThU3r7lbUPTXgGJsLcgU-1" target="ThU3r7lbUPTXgGJsLcgU-12">
          <mxGeometry relative="1" as="geometry">
            <mxPoint x="461" y="320" as="targetPoint" />
          </mxGeometry>
        </mxCell>
        <mxCell id="ThU3r7lbUPTXgGJsLcgU-12" value="" style="shape=line;html=1;strokeWidth=6;strokeColor=#000000;fillColor=#000000;fontFamily=Helvetica;fontSize=11;fontColor=default;labelBackgroundColor=default;" vertex="1" parent="1">
          <mxGeometry x="371.5" y="360" width="248.5" height="9.5" as="geometry" />
        </mxCell>
        <mxCell id="ThU3r7lbUPTXgGJsLcgU-28" style="edgeStyle=orthogonalEdgeStyle;rounded=0;orthogonalLoop=1;jettySize=auto;html=1;entryX=0.5;entryY=0;entryDx=0;entryDy=0;strokeColor=default;align=center;verticalAlign=middle;fontFamily=Helvetica;fontSize=11;fontColor=default;labelBackgroundColor=default;endArrow=open;endFill=0;" edge="1" parent="1" target="ThU3r7lbUPTXgGJsLcgU-27">
          <mxGeometry relative="1" as="geometry">
            <mxPoint x="397.25" y="441.7500000000001" as="sourcePoint" />
          </mxGeometry>
        </mxCell>
        <mxCell id="ThU3r7lbUPTXgGJsLcgU-14" value="Tag löschen" style="rounded=1;whiteSpace=wrap;html=1;fontFamily=Helvetica;fontSize=11;fontColor=default;labelBackgroundColor=default;" vertex="1" parent="1">
          <mxGeometry x="361.25" y="411.75" width="71.5" height="30" as="geometry" />
        </mxCell>
        <mxCell id="ThU3r7lbUPTXgGJsLcgU-17" style="edgeStyle=orthogonalEdgeStyle;rounded=0;orthogonalLoop=1;jettySize=auto;html=1;strokeColor=default;align=center;verticalAlign=middle;fontFamily=Helvetica;fontSize=11;fontColor=default;labelBackgroundColor=default;endArrow=open;endFill=0;exitX=0.505;exitY=0.472;exitDx=0;exitDy=0;exitPerimeter=0;" edge="1" parent="1" source="ThU3r7lbUPTXgGJsLcgU-12" target="ThU3r7lbUPTXgGJsLcgU-16">
          <mxGeometry relative="1" as="geometry" />
        </mxCell>
        <mxCell id="ThU3r7lbUPTXgGJsLcgU-16" value="Bezeichnung ändern" style="rounded=1;whiteSpace=wrap;html=1;fontFamily=Helvetica;fontSize=11;fontColor=default;labelBackgroundColor=default;" vertex="1" parent="1">
          <mxGeometry x="461.25" y="411.75" width="71.5" height="30" as="geometry" />
        </mxCell>
        <mxCell id="ThU3r7lbUPTXgGJsLcgU-18" value="Emoji ändern" style="rounded=1;whiteSpace=wrap;html=1;fontFamily=Helvetica;fontSize=11;fontColor=default;labelBackgroundColor=default;" vertex="1" parent="1">
          <mxGeometry x="563" y="411.75" width="71.5" height="30" as="geometry" />
        </mxCell>
        <mxCell id="ThU3r7lbUPTXgGJsLcgU-19" style="edgeStyle=orthogonalEdgeStyle;rounded=0;orthogonalLoop=1;jettySize=auto;html=1;strokeColor=default;align=center;verticalAlign=middle;fontFamily=Helvetica;fontSize=11;fontColor=default;labelBackgroundColor=default;endArrow=open;endFill=0;exitX=0.915;exitY=0.416;exitDx=0;exitDy=0;exitPerimeter=0;" edge="1" parent="1" source="ThU3r7lbUPTXgGJsLcgU-12" target="ThU3r7lbUPTXgGJsLcgU-18">
          <mxGeometry relative="1" as="geometry" />
        </mxCell>
        <mxCell id="ThU3r7lbUPTXgGJsLcgU-20" style="edgeStyle=orthogonalEdgeStyle;rounded=0;orthogonalLoop=1;jettySize=auto;html=1;strokeColor=default;align=center;verticalAlign=middle;fontFamily=Helvetica;fontSize=11;fontColor=default;labelBackgroundColor=default;endArrow=open;endFill=0;exitX=0.103;exitY=0.605;exitDx=0;exitDy=0;exitPerimeter=0;" edge="1" parent="1" source="ThU3r7lbUPTXgGJsLcgU-12">
          <mxGeometry relative="1" as="geometry">
            <mxPoint x="397.25" y="411.7500000000001" as="targetPoint" />
          </mxGeometry>
        </mxCell>
        <mxCell id="ThU3r7lbUPTXgGJsLcgU-26" style="edgeStyle=orthogonalEdgeStyle;rounded=0;orthogonalLoop=1;jettySize=auto;html=1;entryX=0.5;entryY=0;entryDx=0;entryDy=0;strokeColor=default;align=center;verticalAlign=middle;fontFamily=Helvetica;fontSize=11;fontColor=default;labelBackgroundColor=default;endArrow=open;endFill=0;" edge="1" parent="1" source="ThU3r7lbUPTXgGJsLcgU-21" target="I-S3wze22YUGqL7Zf7O3-19">
          <mxGeometry relative="1" as="geometry">
            <mxPoint x="546" y="565.75" as="targetPoint" />
          </mxGeometry>
        </mxCell>
        <mxCell id="ThU3r7lbUPTXgGJsLcgU-21" value="" style="shape=line;html=1;strokeWidth=6;strokeColor=#000000;fillColor=#000000;fontFamily=Helvetica;fontSize=11;fontColor=default;labelBackgroundColor=default;" vertex="1" parent="1">
          <mxGeometry x="448" y="487.75" width="196" height="9.5" as="geometry" />
        </mxCell>
        <mxCell id="ThU3r7lbUPTXgGJsLcgU-24" style="edgeStyle=orthogonalEdgeStyle;rounded=0;orthogonalLoop=1;jettySize=auto;html=1;entryX=0.768;entryY=0.323;entryDx=0;entryDy=0;entryPerimeter=0;strokeColor=default;align=center;verticalAlign=middle;fontFamily=Helvetica;fontSize=11;fontColor=default;labelBackgroundColor=default;endArrow=open;endFill=0;" edge="1" parent="1" source="ThU3r7lbUPTXgGJsLcgU-18" target="ThU3r7lbUPTXgGJsLcgU-21">
          <mxGeometry relative="1" as="geometry" />
        </mxCell>
        <mxCell id="ThU3r7lbUPTXgGJsLcgU-25" style="edgeStyle=orthogonalEdgeStyle;rounded=0;orthogonalLoop=1;jettySize=auto;html=1;entryX=0.25;entryY=0.5;entryDx=0;entryDy=0;entryPerimeter=0;strokeColor=default;align=center;verticalAlign=middle;fontFamily=Helvetica;fontSize=11;fontColor=default;labelBackgroundColor=default;endArrow=open;endFill=0;" edge="1" parent="1" source="ThU3r7lbUPTXgGJsLcgU-16" target="ThU3r7lbUPTXgGJsLcgU-21">
          <mxGeometry relative="1" as="geometry" />
        </mxCell>
        <mxCell id="ThU3r7lbUPTXgGJsLcgU-27" value="" style="shape=sumEllipse;perimeter=ellipsePerimeter;html=1;backgroundOutline=1;fontFamily=Helvetica;fontSize=11;fontColor=default;labelBackgroundColor=default;" vertex="1" parent="1">
          <mxGeometry x="382" y="476.75" width="30" height="30" as="geometry" />
        </mxCell>
        <mxCell id="ThU3r7lbUPTXgGJsLcgU-31" value="&lt;font style=&quot;font-size: 9px;&quot;&gt;&amp;lt;&amp;lt;loop&amp;gt;&amp;gt;&lt;/font&gt;" style="text;html=1;align=center;verticalAlign=middle;resizable=0;points=[];autosize=1;strokeColor=none;fillColor=none;fontFamily=Helvetica;fontSize=11;fontColor=default;labelBackgroundColor=default;" vertex="1" parent="1">
          <mxGeometry x="574" y="167" width="60" height="30" as="geometry" />
        </mxCell>
        <mxCell id="ThU3r7lbUPTXgGJsLcgU-32" value="&lt;font style=&quot;font-size: 9px;&quot;&gt;&amp;lt;&amp;lt;loop&amp;gt;&amp;gt;&lt;/font&gt;" style="text;html=1;align=center;verticalAlign=middle;resizable=0;points=[];autosize=1;strokeColor=none;fillColor=none;fontFamily=Helvetica;fontSize=11;fontColor=default;labelBackgroundColor=default;" vertex="1" parent="1">
          <mxGeometry x="601" y="330" width="60" height="30" as="geometry" />
        </mxCell>
      </root>
    </mxGraphModel>
  </diagram>
</mxfile>
